<svg xmlns="http://www.w3.org/2000/svg" width="621" height="444" fill="none" viewBox="0 0 621 444"><mask id="a" width="417" height="275" x="107" y="109" maskUnits="userSpaceOnUse" style="mask-type:luminance"><path fill="#fff" d="M128.2 341.43c-19.29-2.78-27.1-26.45-13.21-40.13 50.81-50.07 151.87-141.26 237.43-166.8 81.76-24.41 133.55-26.33 158.2-25.09a13.52 13.52 0 0 1 12.19 17.53l-74.8 239.98a24.28 24.28 0 0 1-26.66 16.81L128.2 341.44v-.01Z"/></mask><g mask="url(#a)"><path fill="#D7CBDB" d="M128.2 341.43c-19.29-2.78-27.1-26.45-13.21-40.13 50.81-50.07 151.87-141.26 237.43-166.8 81.76-24.41 133.55-26.33 158.2-25.09a13.52 13.52 0 0 1 12.19 17.53l-80.96 259.75-313.64-45.25-.01-.01Z"/><path fill="#390035" d="M87.7 343.76s121.62-37.56 150.24-39.35c28.62-1.79 246.82 10.73 246.82 10.73l-41.14 76.91L87.7 343.76Z"/><path fill="#390035" d="M246.89 436.76c-46.35 0-84.06-37.71-84.06-84.06s37.71-84.06 84.06-84.06 84.06 37.71 84.06 84.06-37.71 84.06-84.06 84.06Zm0-150.24a66.26 66.26 0 0 0-66.18 66.18 66.26 66.26 0 0 0 66.18 66.18 66.26 66.26 0 0 0 66.18-66.18 66.26 66.26 0 0 0-66.18-66.18Z"/><path fill="#fff" d="M256.27 242.74a.97.97 0 0 1-.33-.06c-9.3-3.64-15.32-12.06-15.32-21.43 0-12.82 11.23-23.25 25.04-23.25 10.08 0 19.13 5.56 23.06 14.18a.9.9 0 0 1-.44 1.19.9.9 0 0 1-1.18-.44c-3.64-7.98-12.06-13.13-21.43-13.13-12.82 0-23.25 9.63-23.25 21.46 0 8.64 5.57 16.39 14.18 19.77a.9.9 0 0 1-.32 1.73l-.01-.02Z"/><path fill="#F9DFD6" d="M307 316.48c-20.71-25.87-32.22-45.57-38.15-56.95-18.57-30.41-21.22-38.78-32.4-52.57-9.4-11.6 36.2-15.35 45.19-1.51 23.47 36.15 73.33 83.09 82.09 89.01m69.69-82.69s25.77 55.72 46.15 62.11l-3.12 12.65-34.05 5.49-33.66-17.12s-.31-17.06-10.88-24.63c-10.58-7.57 35.56-38.5 35.56-38.5Z"/><path fill="#F4B041" d="M323.4 131.81c-2.66 28.08 4.57 90.68 41.03 103.78 23.16 8.33 48.36-7.03 63.67-19.33a26.34 26.34 0 0 0 7.93-30.35c-11.49-28.51-37.72-83-72.2-88.9-34.78-5.95-40.42 34.79-40.42 34.79"/><path fill="#F0AF9E" d="M398.02 249.86c1.51-.16 10.64 24.14 60.81 7.15L432 210.51l-33.98 39.35Z" style="mix-blend-mode:multiply"/><path fill="#F9DFD6" d="M423.57 172.06c14.79 32.55 14.02 69.36-9.23 79.93-23.25 10.57-50.24-14.73-65.03-47.27-14.79-32.54-10.69-61.37 12.56-71.94s46.91 6.74 61.7 39.29"/><path fill="#F9DFD6" d="M352.93 203.37s-7.86-2.54-8.14 2.46c-.07 1.3 2.75 5.31 6.72 10.69 2.61 3.54 6.3 5.08 7.88 1.49.05-.1-6.47-14.64-6.47-14.64M419 171.16s2.4-7.69 6.59-5.36c1.09.6 2.72 4.95 4.82 10.92 1.38 3.93.54 7.72-3.26 7.17-.11-.02-8.15-12.74-8.15-12.74"/><path fill="#F7BEA5" d="M353.46 189.2c1.01-4.29 12.48-11.25 17.76-8.07l-17.76 8.07Zm35.16-17.36c2.76-6.82 14.14-11.3 18.49-8.23l-18.49 8.23Z" style="mix-blend-mode:multiply"/><g style="mix-blend-mode:multiply"><mask id="b" width="10" height="10" x="361" y="188" maskUnits="userSpaceOnUse" style="mask-type:luminance"><path fill="#fff" d="m361.2 191.02 6.15-2.8 2.8 6.15-6.15 2.8-2.8-6.15Z"/></mask><g mask="url(#b)"><path fill="#004754" d="M362.5 191.51a3.39 3.39 0 1 1 6.35 2.38 3.39 3.39 0 0 1-6.34-2.38Z"/></g></g><g style="mix-blend-mode:multiply"><mask id="c" width="10" height="10" x="398" y="170" maskUnits="userSpaceOnUse" style="mask-type:luminance"><path fill="#fff" d="m398.53 173.76 6.14-2.8 2.8 6.15-6.15 2.8-2.79-6.15Z"/></mask><g mask="url(#c)"><path fill="#004754" d="M399.85 174.26a3.38 3.38 0 1 1 6.33 2.37 3.39 3.39 0 0 1-6.56-1.06c-.01-.45.07-.9.23-1.31Z"/></g></g><path fill="#F0AF9E" d="M399.54 190.58c9.44 19.23-8.12 14.16-8.12 14.16l4.21-5.39c-.44-.61-12.25-25.92-12.26-25.7 0 0 9.66 3.68 16.17 16.93Z" style="mix-blend-mode:multiply"/><path fill="#fff" d="m386.16 219.61 23.9-10.85s3.01 10.32-6.89 14.86c-9.67 4.43-17.01-4.01-17.01-4.01Z"/><path fill="#390035" d="m377.67 185.53-1.68-.61a10.14 10.14 0 0 1 4.17-5.14c3.93-2.41 8.09-1.09 8.88-.8l-.61 1.68c-.66-.24-4.1-1.34-7.33.64a8.28 8.28 0 0 0-3.42 4.23h-.01Zm-30.98 17.25a.9.9 0 0 1-.78-1.34l4.47-7.96a.9.9 0 0 1 .89-.45.9.9 0 0 1 .67 1.33l-4.47 7.96a.9.9 0 0 1-.78.46Zm67.1-35.05a.9.9 0 0 1-.89-.78.9.9 0 0 1 .78-1l7.56-.95a.9.9 0 0 1 .22 1.78l-7.56.95h-.11Z"/><path fill="#00DBA3" d="M397.19 164.81c.31-6.04 9.12-6.34 9.84-.33 4.49-4.05 10.93 1.97 7.19 6.72 6.04.31 6.34 9.12.33 9.84 4.05 4.49-1.97 10.93-6.72 7.19-.31 6.04-9.12 6.34-9.84.33-4.49 4.05-10.93-1.97-7.19-6.72-6.04-.31-6.34-9.12-.33-9.84-4.05-4.49 1.97-10.93 6.72-7.19Z"/><path fill="#390035" d="M402.51 184.86a8.35 8.35 0 1 0 0-16.7 8.35 8.35 0 0 0 0 16.7Z"/><path fill="#00DBA3" d="M360.35 181.55c.31-6.04 9.12-6.34 9.84-.33 4.49-4.05 10.93 1.97 7.19 6.72 6.04.31 6.34 9.12.33 9.84 4.05 4.49-1.97 10.93-6.72 7.19-.31 6.04-9.12 6.34-9.84.33-4.49 4.05-10.93-1.97-7.19-6.72-6.04-.31-6.34-9.12-.33-9.84-4.05-4.49 1.97-10.93 6.72-7.19Z"/><path fill="#390035" d="M365.67 201.61a8.35 8.35 0 1 0 0-16.7 8.35 8.35 0 0 0 0 16.7Zm140.56 4.43L404.28 274l13.26 12.52 94.05-62.6-5.36-17.88Z"/></g><path fill="#F9DFD6" d="M302.33 327.66s-30.41-16.1-44.71-16.1-46.5 12.52-33.98 35.77c0 0-30.56 54.55-16.17 72.88 14.38 18.33 102.01-25.28 102.01-25.28l-7.14-67.27h-.01Z"/><path fill="#9AEFDC" d="M478.5 271.32s-5.57 15.41-20.22 9.94c-14.65-5.47-30.67-19.62-49.49-17.02-18.82 2.6-127.92 65.2-127.92 65.2s-10.73 9.39 32.19 72.66l54.55-25.26 54.15 9.25a22.53 22.53 0 0 0 25.21-15.22l20.8-63.77 10.73-35.77v-.01Z"/><path fill="#F9DFD6" d="M283.13 192.54c-2.34-10.23-18.56-50.96-23.42-54.99-4.86-4.03-9.77-3.37-7.4 4.51.91 3.02 10.81 31.2 7.11 33.46-3.7 2.25-14.78 6.67-6.3 15.49 7.05 7.32 14.5 19.14 23.14 13.88 0 0 8.24-6.39 6.88-12.35"/><path fill="#F9DFD6" d="M276.14 174.07c3.55 6.37 9.94 17.83 8.41 22.24-3.08 8.84-3.59 17.04-20.25 21.59-16.66 4.55-34.45-16.27-36.79-21.79-5.65-13.38 48.63-22.03 48.63-22.03"/><path fill="#F0AF9E" d="M245.82 204.71c8.07 5.41 12.46 5.9 15.83-3.36 2.84-7.8 18.99-8.95 18.42-13.75-.85-7.12-12.41-12.24-17.57-7.47-6.53 6.04-12.66 3.95-14.91-2.86-3.19-9.69-22.35 13.64-1.77 27.44Z"/><path fill="#F9DFD6" d="M250.56 175.02c-8.29-2.31-17.57 1.69-15.44 8.36 2.14 6.67 11.38 26.08 16.73 23.93 5.35-2.15 3.71-11.98.77-16.44-2.94-4.46-2.06-15.84-2.06-15.84"/><path fill="#F9DFD6" d="M263 171.32c-8.29-2.31-17.57 1.69-15.44 8.36 2.14 6.67 11.38 26.08 16.73 23.93 5.35-2.15 3.71-11.98.77-16.44-2.94-4.46-2.06-15.84-2.06-15.84m-27.81 9.72c-8.44-.49-16.15 4.45-12.36 9.63 3.79 5.19 17.66 19.75 22.14 17.04 4.48-2.72.33-10.62-3.63-13.83-3.96-3.21-6.15-12.84-6.15-12.84Z"/><path fill="#F9DFD6" d="M255.94 187.11c6.12-6.92 12.32-14.21 19.53-12.49 7.21 1.73 13.45 19.53 6.55 30.96-4.13 6.85-20.34 7.16-21.07.19-.72-6.97 12.56-20.36 12.56-20.36s-9.47 8.11-15.13 9.31c-5.65 1.2-6.88-2.61-2.44-7.62"/><path fill="#F4B041" d="M309.72 78.65c-1.9-10.79-1.15-27.33 3.31-37.34 5.87-13.16 19.93-21.8 34.33-22.51 46.17-2.28 53.75 48.44 52.63 61.99-1.81 21.9-32.87 63.49-50.19 61.9-14.01-1.29-35.42-37.63-40.08-64.04Z"/><path fill="#F4B041" d="M336.67 178.14c-3.67-9.42-31.95-45.82 5.51-74.56 37.47-28.73 71.69 40.72 71.69 40.72l-77.2 33.84Z"/><path fill="#D7CBDB" d="M162.81 311.47c-1.35-14.32-12.44-25.86-26.53-28.71-17.32-3.51-44.5-5.19-63.78 11.82-30.41 26.83-14.31 67.96 16.1 62.6 25.18-4.44 77.34-12.57 74.22-45.7l-.01-.01Z"/><path fill="#390035" d="M151.09 313.14c-1.05-11.17-9.7-20.16-20.69-22.39-13.5-2.74-34.7-4.05-49.74 9.21-23.71 20.92-11.16 53 12.55 48.81 19.63-3.46 60.31-9.8 57.87-35.64l.01.01Z"/><mask id="d" width="85" height="62" x="67" y="288" maskUnits="userSpaceOnUse" style="mask-type:luminance"><path fill="#fff" d="M151.09 313.14c-1.05-11.17-9.7-20.16-20.69-22.39-13.5-2.74-34.7-4.05-49.74 9.21-23.71 20.92-11.16 53 12.55 48.81 19.63-3.46 60.31-9.8 57.87-35.64l.01.01Z"/></mask><g mask="url(#d)"><path fill="#fff" d="m103.09 270.02 8.64 2.28-25.12 95.1-8.65-2.28 25.13-95.1Zm12.51 1.79 1.6.42-25.13 95.1-1.6-.42 25.13-95.1Z" opacity=".2"/></g><path fill="#fff" d="M265.67 244.49c-13.81 0-25.04-10.43-25.04-23.25a.9.9 0 0 1 1.78 0c0 11.84 10.43 21.46 23.25 21.46s23.25-9.63 23.25-21.46a20.3 20.3 0 0 0-4.06-12.13.9.9 0 0 1 .18-1.25.9.9 0 0 1 1.25.19 22 22 0 0 1 4.42 13.19c0 12.82-11.23 23.25-25.04 23.25h.01Z"/><path fill="#390035" d="M291.54 242.86a12.76 12.76 0 0 0-15.85-8.62l.65-11.79-7.52-.42a70.45 70.45 0 0 0-2.97 15.44 12.7 12.7 0 0 1 4.86 18.2c.64.61 1.34 1.16 2.13 1.63a12.48 12.48 0 0 0 10.09 1.39c6.76-2 10.61-9.09 8.62-15.85l-.01.02Z"/><path fill="#00DBA3" d="m265.8 238.28.05-.8a12.66 12.66 0 0 0-9.49-.91l.65-11.79-7.52-.42a70.25 70.25 0 0 0-3.02 16.24c-.31 6.11.51 12.55 4.22 16.7.8.89 1.73 1.68 2.81 2.34a12.48 12.48 0 0 0 10.09 1.39 12.7 12.7 0 0 0 7.12-5.34 14.9 14.9 0 0 1-.68-.7c-3.71-4.16-4.54-10.59-4.22-16.7l-.01-.01Z"/><path fill="#ABF800" d="M272.21 245.18a12.7 12.7 0 0 0-6.36-7.7l-.05.8c-.31 6.11.51 12.55 4.22 16.7.22.24.44.48.68.7a12.73 12.73 0 0 0 1.5-10.5h.01Z"/></svg>
