<svg version="1.1" id="Calque_1" xmlns="http://www.w3.org/2000/svg" x="0" y="0" viewBox="0 0 920 640" style="enable-background:new 0 0 920 640" xml:space="preserve"><style>.st1{fill:#adecfe}.st2{fill:#008cb2}.st4{fill:#fff}.st7{fill:#facfc4}.st8{fill:#f6b241}.st10{fill:#9aed66}.st11{opacity:.15;fill:#8f4160}.st12{fill:#054752}.st13,.st14{opacity:.15}.st14{fill:#8d405f}.st15{fill:#ca9c6f}.st16{fill:#162d38}.st17{opacity:.3;fill:#7e425e}.st20{fill:#d09c60}.st21{fill:#573a22}.st22{fill:#2ed1ff}.st23{fill:#a06e3c}</style><path d="M144.2 501.1h657.1S576.7 636.8 357.9 618c-175.8-15-213.7-116.9-213.7-116.9z" style="opacity:.1;fill:#2ed1ff"/><path class="st1" d="m729.6 451.5-1.3-7.5s12.9-28.2-45.6-41.9c-40-9.4-112-19.5-112-19.5l-283-.1-21.9-.3 304.9.4s-57.3-59.3-112.9-59.3c-55.6 0-127.5 22.6-192.1 58.9 0 0-35 20.8-46.6 38.5-11.6 17.7-12.7 24.3-12.7 24.3l.6 19.4h512c6.6 0 11.8-6.1 10.6-12.9zm-270.7-121c46.7 0 90.3 42.3 90.3 42.3 0-.1-2.1 8.6-2.1 8.8l-217.2-.9c-4.4 0-15.5-.9-15.5-7.9v-1.9c0-14.4 97.9-40.4 144.5-40.4z"/><path class="st2" d="M720.2 445.7c-3.3 0-6 2.7-6 6s2.7 6 6 6h10.4v-12h-10.4zm9.5-8.7H704c-1.3 0-2.3 1-2.3 2.3 0 1.3 1 2.3 2.3 2.3h25.7V437z"/><path style="opacity:.5;fill:#008cb2" d="M583.5 463.7H347.3l-5.8-22.8h247.8z"/><path class="st2" d="M580.1 474.5H354.2c-1.9 0-3.4-1.5-3.4-3.4s1.5-3.4 3.4-3.4h225.9c1.9 0 3.4 1.5 3.4 3.4 0 1.8-1.5 3.4-3.4 3.4m-312.6 0h-61.8c-1.9 0-3.4-1.5-3.4-3.4s1.5-3.4 3.4-3.4h61.8c1.9 0 3.4 1.5 3.4 3.4 0 1.8-1.5 3.4-3.4 3.4m458.9 0h-61.8c-1.9 0-3.4-1.5-3.4-3.4s1.5-3.4 3.4-3.4h61.8c1.9 0 3.4 1.5 3.4 3.4 0 1.8-1.5 3.4-3.4 3.4"/><path class="st4" d="M722.2 413.4h-32.9s5.4 13.1 22.4 15.6c21.3 3 20.4.5 20.4.5l-9.9-16.1z"/><path d="M573.7 429.6h-91.2c-4.4 0-7.9-3.6-7.9-7.9v-3.2c0-4.4 3.6-7.9 7.9-7.9h91.2c4.4 0 7.9 3.6 7.9 7.9v3.2c0 4.3-3.5 7.9-7.9 7.9m-131.2 0h-91.2c-4.4 0-7.9-3.6-7.9-7.9v-3.2c0-4.4 3.6-7.9 7.9-7.9h91.2c4.4 0 7.9 3.6 7.9 7.9v3.2c0 4.3-3.6 7.9-7.9 7.9" style="opacity:.5;fill:#fff"/><path class="st2" d="M543.4 370.2v31c5.8 0 10.6-4.8 10.6-10.6v-9.8c0-5.8-4.8-10.6-10.6-10.6m39.9 95.1a40.2 40.2 0 0 1 80.4 0"/><path class="st1" d="M656.7 465.3c0 6.7-2 12.9-5.4 18.1a33.13 33.13 0 0 1-27.8 15.1c-18.3 0-33.2-14.9-33.2-33.2 0-8.2 3-15.7 7.9-21.4 6.1-7.2 15.2-11.7 25.3-11.7a33.1 33.1 0 0 1 33.2 33.1"/><path class="st2" d="M651.3 483.4a33.13 33.13 0 0 1-27.8 15.1c-18.3 0-33.2-14.9-33.2-33.2 0-8.2 3-15.7 7.9-21.4l16.8 12.5 19.4 14.5 16.9 12.5z"/><path class="st4" d="M635.8 465.3a12.3 12.3 0 1 1-24.6 0 12.3 12.3 0 1 1 24.6 0"/><path class="st2" d="M269.9 465.3a40.2 40.2 0 0 1 80.4 0"/><path class="st1" d="M344 464.4c0 6.7-2 12.9-5.4 18.1a33.13 33.13 0 0 1-27.8 15.1c-18.3 0-33.2-14.9-33.2-33.2 0-8.2 2.9-15.7 7.9-21.4 6.1-7.2 15.2-11.7 25.3-11.7 18.4-.1 33.2 14.8 33.2 33.1"/><path class="st2" d="M338.6 482.5a33.13 33.13 0 0 1-27.8 15.1c-18.3 0-33.2-14.9-33.2-33.2 0-8.2 2.9-15.7 7.9-21.4l16.8 12.5 19.4 14.5 16.9 12.5z"/><path class="st4" d="M323.2 464.4a12.3 12.3 0 1 1-24.6 0 12.3 12.3 0 1 1 24.6 0"/><path d="M218.5 92.8c-.3 4.5-37.6 2.6-37.6 2.6S183.5 80 193 83.3c0 0 13.1-14.1 18.2 2 .1-.1 7.9-1.8 7.3 7.5zm81.9 30.9-19.4 1.7-32.1-3.2s1.1-7.2 7-6.1c0 0 .4-10.4 8.5-7.6 0 0 5.6-19 17.4-6.2 0 0 12.9-1.2 11.9 9.8 0 0 14.8 2.6 6.7 11.6zM737 107.4l-29.2 2.5-48.5-4.8s1.6-10.8 10.6-9.2c0 0 .6-15.7 12.8-11.5 0 0 8.5-28.7 26.2-9.4 0 0 19.5-1.8 17.9 14.8 0 .1 22.3 3.9 10.2 17.6z" style="fill:#e3f5ff"/><path class="st7" d="m663 311.1 28.4 39.5c0 .1-10 9.8-10.5 10.4-.1 0-4.2-3.2-9.6-8.2-8.5-7.8-24.1-23.7-29-34.4-.4-1.1 18.1-5.4 20.7-7.3z"/><path class="st7" d="M691.7 350.8a7.45 7.45 0 0 0-10.4-1.3 7.45 7.45 0 0 0-1.3 10.4c2.5 3.2 7.2 3.8 10.4 1.3 3.3-2.5 3.8-7.2 1.3-10.4z"/><path class="st8" d="M641.6 278.9c-4.3 5.9-9 8.1-9 8.1s-31.8 1.4-46.2-8.2c-3.3-2.2-5.6-4.9-6.4-8.4-2.9-11.5 1.1-19.7 8.7-22.4 7.8-2.8 18.4.5 19.4 11.4.3 3 5.4-15.8 22.2-9.3 11.3 4.4 15.9 6.6 16 7.9 1.1 9.7-.6 16.6-4.7 20.9z"/><path class="st10" d="M657.9 296.9c7.5 4.8 16.2 24.2 16.2 24.2l-22.4 15.4s-13.4-23.2-5.6-32.6c4.8-5.9 8-8.1 11.8-7"/><path class="st11" d="M592 549.1c0 3.1 25.5 5.7 56.9 5.7s56.9-2.5 56.9-5.7c0-3.1-25.5-5.7-56.9-5.7-31.5 0-56.9 2.5-56.9 5.7z"/><path class="st12" d="M616.5 468.5a8 8 0 0 1-7.6 8.5 8 8 0 0 1-8.5-7.6 8 8 0 0 1 7.6-8.5c4.5-.2 8.3 3.2 8.5 7.6z"/><path class="st12" d="M619.5 491.7c.1-9.4-2.5-22.4-2.5-22.4s-6 2.7-8.4 3.1c-2.4-.4-7.8-1.5-7.8-1.5s-1.9 11.7-2.2 21.1c-.4 11.9 2.9 31.3 4.8 39.5h7.9c2.5-16.3 8.1-30.9 8.2-39.8z"/><path class="st13" d="M615.4 472.1s-2.6 5.9-7.3 4.9c-1.8-.4-5.4-4.8-5.4-4.8s-.8 9.3 7 9.2c5.4 0 5.7-9.3 5.7-9.3z"/><path class="st12" d="M613.2 538.2s4.1 12.5-1.7 13.1c-6.8.7-7.6-1.3-8.3-5-.7-3.7-.1-7.4-.1-7.4s.4-2.8.3-5.6l8.1-.4c.3 1.1 1.7 5.3 1.7 5.3zm56.8-65.6c-.1.1-16.1 1.8-16.1 1.8s-2 12.7.2 21.8c4.2 17 15.8 33.5 17.6 36.5 0 0 9-1 9.1-1.2L670 472.6z"/><path class="st12" d="M670.1 473c.5 4.4-2.7 8.4-7.1 8.9-4.4.5-8.4-2.7-8.9-7.1-.5-4.4 2.7-8.4 7.1-8.9 4.4-.5 8.4 2.7 8.9 7.1z"/><path class="st12" d="M669 467.7a8.06 8.06 0 1 1-15.18 5.4 8.06 8.06 0 0 1 15.18-5.4z"/><path class="st12" d="m660.9 419.2-9.7-49.7-27.6 8.8c-.1 0 1.5 21.2 4.5 44.6v.4c4.1 31.8 26.2 50.9 26.2 50.9l15-5.4-8.4-49.6z"/><path class="st12" d="M605.3 373.4s-11.6 16.7-9.8 41.6l5 54.8s11.1 2.9 15.4 1.3c5.4-2 8.9-46.9 9.5-56.5h1.9l2.4-7.6 2.8-33.2-27.2-.4z"/><path class="st13" d="M654 474c-.4 5.9-1.7 13.7.3 22 1.3 5.7 2 7 6.2 16.4 0 0-.3-3.4-.3-3.6-2.3-22.6-1.3-32.1-5.4-43.8-.4-1.3-13.2-33.8-13.8-35.5-4.9-13.3-13.8-15.1-14-15.2 2.4 34.1 19 52.2 27 59.7z"/><path class="st10" d="M596.5 296.9c4.3-2.2 9.2-4.4 12-4.9l1.7-.4s14-1.8 17.4-1.7c1.7 0 7 .2 7 .2s8.6 1.9 9.2 2c1.3.3 8.8 1.1 14.2 4.8l-4.8 36.9c-2.1 16-1 32.2-1.7 36 0 0-8.4 8.1-23.4 8.1s-23.4-5.1-23.4-5.1c-1-5.1-3.1-23.4-3.7-38l-4.5-37.9z"/><path class="st7" d="m618.8 271.2 15.7 4.4v14.2c0 .8-2.6 7-7.5 7.3h-1.1c-6.6-.5-7-7.1-7-7.1v-18.8z"/><path class="st14" d="M620.4 277.4c.3.1 2 12 13.8 11.4l.5-11.4h-14.3z"/><path class="st7" d="M644 296a17 17 0 0 1-1.3 6.4c-.4.9-.9 1.8-1.4 2.7-3 4.8-8.5 8-14.6 8-9.6 0-17.3-7.7-17.3-17.1 0-1.5.2-2.9.6-4.3 1.2-.4 2.5-.7 3.8-1 1.2-.3 2.5-.5 3.8-.7.1 0 .3 0 .4-.1.7-.1 1.4-.2 2.1-.2.7-.1 1.5-.1 2.3-.2h1.1c.8-.1 1.6-.1 2.4-.1h1.5c2 0 3.9.2 5.8.4 0 0 .1.1.2.1.6 0 1.2.1 1.8.2.4.1.8.2 1.2.2.3.1.7.1 1 .2.7.1 1.5.3 2.2.5.7.2 1.4.3 2.1.5.7.2 1.5.3 2.2.5.1 1.3.1 2.7.1 4z"/><path class="st12" d="M673.3 537.3c.3 1.5 3 11.1 3 11.1l2.1-.2V543s1-.5 2.3.4c2.3 1.7 2.6 5.2 8.1 4.9 1.8-.1 5.7-1.1 6.2-1.4 3.3-1.6 1.7-3.3-.4-3.5 0 0-1.9-.2-5-1.4-3.3-1.3-6.2-6.3-8-8.5-.1-.1-8.3 3.8-8.3 3.8z"/><path class="st7" d="m606.1 317.9-20.9 43.9s-13.4-4-14.2-4.2c-.1-.1.8-5.2 2.6-12.3v-.1c2.8-11.2 9.2-32.5 16.2-42 .6-.8 13.3 13.3 16.3 14.7z"/><path class="st10" d="M600.8 294.5c-12.6 3.9-21.6 23.9-23.8 28.2l20.9 14.1s9.9-11.3 11.5-19.9c1.6-8.7-3.7-23.9-8.6-22.4z"/><path class="st7" d="M585.1 362.2c1.6-3.8-.1-8.1-3.9-9.8-3.8-1.6-8.1.1-9.7 3.9-1.6 3.8.1 8.1 3.9 9.8 3.7 1.6 8.1-.2 9.7-3.9z"/><path class="st7" d="M574.2 351.6s3.9-1.3 8.1-1.5c2.8-.1 20.6-1.6 32.5-5.5.6-.2 2.5-1.1 2.8-1.3.7-.4 1.6-1.2 2.4-1.5 1.3-.5 2.5-1.3 3.2-1.7.5.9.2 1.9-1.1 2.7-1 .6-2.1 1.1-1.9 1.6.2.3 1 0 3-.7 1.6-.6 4-1.5 6.2-2.1 1.3-.4 1.6.9.8 1.4-1.5.8-5.2 2.1-5.8 2.5-.2.2-.1.4.1.3 1.8-.4 6-3.2 6.6-1.7 0 .2 0 .4-.1.6-.2.3-.5.5-1.1.8-.2.1-.3.1-.5.2-1.7.7-3.3 1.4-4.1 1.9-.2.1-.3.4-.1.4.1.1 1.2-.4 2.4-.9 1.7-.7 3.7-1.5 4-.9.3.6-.6 1.1-1.7 1.6-2 .9-4.7 1.9-4.8 2-.1.1 0 .4.2.3.7-.2 2.6-.8 3.9-1.2.7-.2 1.1.4.8.7-1.2.7-3.7 1.6-5.5 2.4-3.3 1.4-6.9 1.6-10.1 2.9-.8.3-1.2.6-2.5 1.2-3.6 1.7-12.6 5.5-28.1 8.9-3.4.8-5 .9-6.9 1.1"/><path class="st8" d="M649 244.2c-13.3-13.8-31.6 0-38.1 13l3.9.6c9.2-2.1 17.2 4 26.1 4.1 9.6 0 14.9-10.6 8.1-17.7z"/><path class="st7" d="m639.7 265.8-1 4.6c-.9 4.5-3.3 14.5-9.9 14.4-1 0-2-.2-2.6-.3l3.8-24 1.5.2 1.9.3 2.4.4c1.7.3 3.2 1.4 3.6 2.9.2.4.3.9.2 1.4l.1.1z"/><path class="st7" d="m619.3 262.6-.4 4.7c-.5 4.5-.5 14.9 5.8 16.8.9.3 1.1.3 1.7.4l3.7-24-1.5-.2-1.9-.3-2.4-.4c-1.7-.2-3.5.3-4.3 1.7-.2.3-.5.7-.7 1.3z"/><path class="st14" d="M632.1 266.1s-.9 7.2-1 7.4c-.4.5-3.1.2-3.1.2s3 3.1 6.1 1.6c3.1-1.6 5.6-9.4-2-9.2z"/><path class="st8" d="M615.8 252.4c-1 6.2 3 11.9 9 12.9l10.2 1.6c3.8.6 10.1.4 12.6-9.4l-31.8-5.1z"/><path class="st4" d="M633.4 276.6c-1.4-.2-9.3-1.4-9.3-1.4-.1 1.7 2.1 3.5 4.3 3.9 2 .4 4.7-1 5-2.5z"/><path class="st7" d="M692.8 357.6c1.3-7.9 4.4-33.3 4.4-36.5.4-8.6 1.5-10.6 2.2-14.9.6-3.6-9.5 1-9.8 5-.7 10.4-5.8 26.3-6.9 28.6"/><path class="st7" d="M689.7 309.2c-1.5-2.1-6.3-11.6-6.2-13.1.1-1.5 1-2.3 2-.6.4.7 3.9 7 4.9 6.7 1-.3.3-9.8 1.3-10.3s1.7-.3 1.9.7.4 8 .7 11c.2 2.5 1.1 5.7-1.2 6.4-.1-.1-2.6.4-3.4-.8z"/><path class="st7" d="M687.1 304c0 1.8 0 5 .8 5.7 1.7 1.5 2.8 3.2 6.8 2.2 4.1-1 5.4-7.5 5.2-9-.2-3.5-12.8 1.1-12.8 1.1z"/><path class="st14" d="M697.2 306.9c-1.1 2.1-1.9 2.7-3.8 1.2-1.5-1.3-5.1.3-5.5-.7-.7-1.6 1.2-4.1 2.8-3.7 2.1.5 3.2-.7 2.8-2.4-.4-2.4 6.4.2 3.7 5.6z"/><path class="st7" d="M692.7 301.2c1.5-1.5 3.9-1.7 4.3 0 .3 1.7.7 6.9-.7 7.1-1.4.2-2.2-2.1-2.1-3.4s-1.5-3.7-1.5-3.7z"/><path class="st7" d="M696.7 300.6c1.7-1.1 4-1 3.8.6-.2 1.5-1.4 6.3-2.7 6.2-1.3 0-1.3-2.2-.9-3.4s-.2-3.4-.2-3.4zm-3.7 3.8c-2.1-.7-4.3-1.6-5.6-.3s-.6 5.7 2.3 7.3c1.7 1 5.2-.9 4.5-2.4-.7-1.6-5.1-2.8-5.1-2.8s3 .6 4.3.2c1.3-.5 1.1-1.5-.4-2z"/><path d="M635.6 268c-1.1-.3-1.7.5-1.9.9-.1.3 0 .6.3.7.3.1.6 0 .7-.3 0-.1.2-.4.7-.3.5.1.5 1 .5 1 0 .3.2.5.4.5h.1c.3 0 .5-.2.5-.5.1-.5-.2-1.7-1.3-2zm-10.2-1.5c-1.1-.3-1.9.7-2.1 1.2-.1.3 0 .6.3.7h.1c.2.1.5 0 .6-.3 0 0 .4-.8.9-.6.5.1.5.5.5.5 0 .3.2.5.5.6.3 0 .5-.2.6-.5-.1-.3-.3-1.3-1.4-1.6z"/><path class="st15" d="m173.3 494.4-15.7 13.8-.4 9.3 15.2-7z"/><ellipse class="st11" cx="240.1" cy="557.2" rx="78.8" ry="5.5"/><path class="st16" d="M207.7 463.1c-12.7 6.3-32.5 27.1-43.2 36.8l7.8 12.5c.7 0 47.2-25.4 63.5-34.3a7.8 7.8 0 0 0 3.7-9.3v-.1c-1.7-3.2-5.5-8-6.2-8.8l-.1-.1s-22.2 1.7-25.5 3.3"/><path class="st16" d="M220.5 387.4s-.5 48.4-.6 60c-.1 11.8 4.3 31.5 12.4 31.2 8.1-.3 21.2-22 22.2-37.2 1-15.2 4.7-54.3-1.2-57.7-5.8-3.5-32.8 3.7-32.8 3.7"/><path class="st15" d="M281.2 532.6s3.8 13.8 5.6 16.2c1.9 2.5 7.2 2.6 7.2 2.6V543l-2-8.6-10.8-1.8z"/><path class="st12" d="M261.2 462.7s-3.6 14.8-2.2 24.1c2 14 15.5 38 22.1 50.9l12.4-1.4c.2-.8-14.3-78.9-14.3-78.9s-6.5.1-6.6.2l-11.4 5.1z"/><path class="st12" d="M225.9 401.4c6.6 18.7 30.3 58.2 37.4 63 7.1 4.8 15.2 3.8 15.8-7.1.6-10.8-8.5-64.9-15.3-71.5-6.8-6.5-44.5-3.1-37.9 15.6"/><path class="st10" d="M285.3 545.5c-.2.3-1.3 2.9-1.1 4.8.2 2 1.8 3.8 1.8 3.8l7.4.4 7.7 2.6h12.4s1.3-4.4-4.9-5.6c-4.9-.9-13.6-7.2-13.6-7.2s-.2 1.8-2.1 2.4c-2 .8-7.6-1.2-7.6-1.2"/><path class="st12" d="M304.2 550s-2.7 2.7-2.9 4.2c-.2 1.5-.2 3-.2 3l13.2.2s.9-3.8-2.4-4.8c-3.2-1.1-7.7-2.6-7.7-2.6m-18.2 4.2.1 2.2 6.5.4.9-2.2z"/><path class="st4" d="m294.9 544.5-2.1 2.4 2.2 3.8 4.7 1.9 3.4-3.2z"/><path class="st12" d="M294.7 547.7c.9-.6 1.8-1.2 2.8-1.7.2-.1.4 0 .5.1.1.1 0 .4-.1.5-1 .5-1.9 1-2.8 1.7-.2.1-.4 0-.5-.1-.1-.2-.1-.4.1-.5m1.1 1.1c.9-.7 1.7-1.4 2.7-2.1.2-.1.4 0 .5.1.1.2 0 .4-.1.5-.9.6-1.7 1.3-2.5 2-.1.1-.3.1-.5 0-.2-.2-.2-.4-.1-.5m1.3 1c.5-1 1.3-1.8 2.3-2.4.2-.1.4 0 .5.1.1.2 0 .4-.1.5-.9.5-1.6 1.2-2.1 2.1-.2.5-.8.1-.6-.3m1.2.9c.4-.7 1-1.3 1.6-1.8.3-.2.6-.5.9-.7.2-.1.5 0 .6.2.1.3-.2.5-.5.5-.2 0-.2-.2-.3-.3 0-.2.2-.3.3-.3.2 0 .3.2.3.3l-.3-.3h-.2c-.1 0-.1.1-.2.1v.3l.2.2h.2c.1 0 .1 0 0 0 0 0-.1 0-.1.1-.1 0-.1.1-.2.1-.1.1-.2.1-.3.2l-.6.6c-.4.4-.7.8-1 1.3-.1.2-.3.2-.5.1.1-.2 0-.4.1-.6m1.8.1c.4-.8 1-1.5 1.8-2 .1-.1.4 0 .5.1.1.2 0 .4-.1.5-.3.2-.6.4-.9.8l-.2.2s-.1.1 0 0l-.1.1c-.1.2-.2.4-.3.5-.1.2-.3.2-.5.1-.2 0-.3-.2-.2-.3"/><path class="st10" d="M161.7 505.3c-.4-.1-3.1-.4-4.9.5-1.8.8-3.1 2.9-3.1 2.9l1.9 7.2-.2 8.1 3.8 11.8s4.6-.1 3.8-6.4c-.6-4.9 2.6-15.2 2.6-15.2s-1.8.4-2.9-1.3c-1.1-1.7-1-7.6-1-7.6"/><path class="st12" d="M163.3 524.6s-3.4-1.7-4.9-1.4c-1.5.3-2.9.7-2.9.7l3.8 12.6s3.9-.3 3.9-3.7c0-3.5.1-8.2.1-8.2m-9.6-16-2.1.7 1.6 6.4 2.4.1z"/><path class="st4" d="m165.7 514.1-2.9-1.3-3 3.3-.4 5 4.1 2.3z"/><path class="st12" d="M162.5 514.8c.9.7 1.7 1.4 2.5 2.2.1.1.1.4 0 .5-.2.1-.4.1-.5 0-.7-.8-1.5-1.5-2.4-2.1-.3-.3.1-.8.4-.6m-.6 1.5 2.7 1.8c.4.3 0 .8-.4.6-.9-.7-1.8-1.3-2.7-1.8-.2-.1-.2-.3-.1-.5.2-.2.4-.2.5-.1m-.7 1.5c1.1.2 2.2.7 3 1.5.1.1.1.4 0 .5-.2.1-.3.1-.5 0-.7-.7-1.6-1.1-2.6-1.3-.2 0-.3-.2-.3-.4.1-.1.2-.3.4-.3m-.4 1.5c.8.2 1.6.6 2.3 1 .2.1.3.2.5.3.1.1.3.2.4.4.1.2.1.5-.2.6-.2.1-.5-.1-.5-.3 0-.2.1-.3.2-.4.2-.1.4 0 .5.2.1.2 0 .4-.2.5.1-.1.1-.2.2-.4 0-.1-.1-.1-.1-.2-.1 0-.2 0-.3.1l-.1.1v.3c.1.1.1.1 0 0l-.1-.1c-.1 0-.1-.1-.2-.1-.1-.1-.2-.1-.3-.2-.2-.2-.5-.3-.7-.4-.5-.3-1-.5-1.6-.6-.2-.1-.3-.3-.2-.4.1-.4.3-.5.4-.4m.5 1.7c.9.1 1.7.5 2.5 1.1.1.1.2.3.1.5-.1.1-.3.2-.5.1-.6-.5-1.3-.8-2.1-.9-.2 0-.3-.2-.3-.4-.1-.3.1-.4.3-.4"/><path class="st15" d="M271.9 334.7c.4.2.7.4 1.1.5.2.1.5.2.7.3 3 1.4 6 2.6 9 3.6 13 4.4 23.8 5.1 30.5 5.6 2.7.2 4.5.6 4.5.6 0-.3.8-4 1.5-6.4.1-.3 1.4-5.4 1.8-6.8.2-.8.4-1.4.3-1.4l-3.2-1.4-26.7-11.6-8.9-3.9-.6-.3-.7-.3c-1.3 3-9.5 21.4-9.3 21.5"/><path class="st15" d="M311.5 338.2c-.1 2.9 1.5 5.4 4 6.6.8.4 1.8.6 2.7.7 1.7.1 3.3-.5 4.5-1.4 1.3-1 2.2-2.4 2.6-4 .1-.4.2-.8.2-1.3.1-2.3-1-4.4-2.7-5.8-.9-.7-1.9-1.2-3.1-1.4-.3 0-.6-.1-.9-.1a7 7 0 0 0-6.8 4.5c-.3.7-.4 1.4-.5 2.2"/><path class="st17" d="M303.9 343.6c4 .5-9.4-12.9-15.6-14.6l-12.4-3.4-2.9 9.7-.2 1.4c0-.1 13.4 4.4 31.1 6.9"/><path class="st10" d="M206.4 323.6c1.9-6.1 7.5-10.7 13.7-13.3 16-5.6 30.3-4.8 36.4-4.8 2.9.4 6 .4 6 .4s27.5 6.5 34.9 11.3c.3.2-3.4 29.8-3.4 29.8.3.2-10.3-.2-10.8 0-3 19.4-3.7 38.9-6.7 62.6-10 15.4-65.3 3-65.3 3 .2-.8 13.8-37.5 12.5-54.6l-5.2 2.2c-.2 0-15.1-26.8-12.1-36.6"/><path class="st15" d="M332 300.8c-1.5-4.3.1-6.1-.6-10.1-.8-4.8-.6-5.5.9-5.5 2.2 0 3.1 7 3.1 7s3.6-5.7 6.1-10.1c2.5-4.4 4.3-.6 2.8 2.1-1 1.7-2.6 5.1-3.7 7.3-.1.2-.2.7 0 .5 1.3-1.3 1.9-2.1 2.8-2.7 1.7-1.2 3.4 1.3 1.9 2.5-1.1 1-1.2 1.3-1.2 1.3s2.2-2.3 3.2-1.5.8 2.2-.1 3.1c-1.1 1-1.4 1.5-1.4 1.5s5.1-4.5 6.7-4.5c1.9-.1 1.1 1.4-.2 2.9-1.8 2.3-5.4 6.5-7.1 7.8-1.6 1.3-4.9 3.6-5.8 3.4s-6.8-3.3-7.4-5z"/><path class="st15" d="M331.3 298c-.2 4.2-10.5 18.2-13.7 23.8-1.9 3.3-5 9.5-5 9.5l11.9 10.5s11.3-26 13-29.7 2.4-5.4 4-6.6 2.3-3.5 1.5-4.8c-.9-1.2-11.4-7.7-11.7-2.7z"/><path class="st17" d="M339.9 293.6c.6 1 1.6 2.4 3.3 1 0 0-1.1 1.1-.2 2.3.9 1.2 2.4 0 2.4 0s-2.3 2.2-3.5 1.1c-1.1-1.1-.3-1.9-.6-2.1-.3-.2-1.2-.5-1.4-2.3z"/><path d="m233.7 384.1-11.4-12.8 1.5-8.6 23 10.5c1.3.5 2.7 1.2 4 2.1 2.6 1.6 14.5 9.3 27.4 12.9.7.2-.7 10.8-.7 10.8-.9-.2-2.5-.4-4-.7-4.2-.6-14.4-2.7-30.2-8.9-3.5-1.4-5-2.2-6.7-3.1-1.2-.5-2.1-1.3-2.9-2.2" style="opacity:.3;fill:#5f003c"/><path class="st15" d="M241.5 306.3c-.1.9 7.3 4.4 11.8 4.2 3.8 0 7.6-1.2 9.3-4.7.3-.5.5-1.2.6-1.9l2.1-10.8.1-.6-1.6-16.3-14.8 5s-6.2 14.7-7.5 25.1"/><path class="st17" d="M262.7 306.4c.3-.5.5-1.2.6-1.9l2.1-10.8-7.8-2.7c0 .1-1.8 14 5.1 15.4"/><path class="st15" d="M233.9 378.2c.4.1.7.2 1 .2.2-.1 1.8-1.5 3.7-3.2 2.7-2.4 6.1-5.5 7.6-6.9.5-.4.8-.7.8-.7l-.2-.5-5.8-16.8-22.6 9.6"/><path class="st15" d="M232.4 370.2c-1.5 4.1.7 8.7 4.8 10.2s8.7-.6 10.1-4.7c1.5-4.1-.7-8.7-4.8-10.2s-8.7.6-10.1 4.7"/><path class="st15" d="M291.1 387.8c-2.1-.6-3.1-.8-3.1-1.2.1-.6 1.3-.3 2.6-.3 1.7.1 2.5-.6 2.6-1.7-.9 0-2.4-.1-3.9-.4-1-.2-2.2 0-3.1-.1-.4 0-2.6-.3-3.3-.5-12.9-3.6-29.6-12.9-32.2-14.5-3.9-2.4-8.1-3.5-8.1-3.5l-6.1 14.5c1.8 1 3.2 1.8 6.7 3.1 15.8 6.2 26 8.2 30.2 8.9 1.5.3 2.1.3 2.9.5 3.5.7 6.9 2.7 10.7 3.4 2 .4 4.8 1.1 6.3 1.1.5-.1.4-.9-.3-1.1-1.4-.5-3.4-1.1-4.2-1.3-.2 0-.1-.3 0-.4.2-.1 3.2.8 5.5 1.1 1.4.2 2.4.3 2.5-.4.1-.7-2.2-1.2-4.1-1.5-1.3-.3-2.5-.5-2.6-.6-.2-.2 0-.4.3-.3 1 .1 2.9.4 4.8.8.2 0 .4.1.5.1.7.1 1.2.1 1.5-.1.2-.1.3-.2.4-.4.3-1.6-5-1.6-6.9-2.4-.2-.1-.2-.4.1-.4.8 0 4.8 1.1 6.6 1.2 1 .1 1.5-1.3.1-1.7-2-.8-4.7-1.4-6.4-1.9m-18.8-96.5c-.8 2.1-3.7 1.9-8.7 2.3h-.1c-.6 0-1.3-.1-2.1-.3-1.2-.3-2.6-.8-4-1.4-3.3-1.4-6.5-3.2-7.4-3.7-6.5-3.7-7.6-16.5-7.1-21.6 1.2-10.8 10.7-11 17.4-9 3.7 1 6.5 2.9 8.5 5 3.6 3.7 4.8 10.3 4.4 11.1-.5.9-1.1 2.1-1.2 2.9-.2 1.6.7 3.5.5 4.5-.1.3-.1.6-.1.8-.9 7.1.9 6.7-.1 9.4"/><path d="m266.6 272 6.1.3a5 5 0 0 0-6.1-.3z"/><path class="st15" d="M272.1 273.7c.9 4.1 2.3 6.2 2.7 7.8.1.3-2.2.4-2.5.4 0 0-1.1-1.7-1.1-3.5-.1-2.3.9-4.7.9-4.7"/><path d="M272.5 282v-.3l-17.6 1s-.6 6.7 2.5 9.3c.4.4.9.6 1.5.8.7.2 1.6.4 2.5.6l2.1.3h.1c5-.4 7.9-.2 8.7-2.3 1-2.8-.8-2.4.2-9.4z" style="opacity:.3"/><path d="M273.3 254c-4.5-.5-8.4.2-11.7 1.3-4.1-2-9.7-3-16.7.2-9.8 4.5-7.3 18.7 1.6 31.5.1.2 4.6-.4 6.1-2.3 1.8-2.4 2.5-9.8 2.5-9.8l5.2 1.7s2-5.7 2.4-6.7c.2-.6.5-1.2.9-1.7 4.5.5 9.7.7 11-.2 2.4-1.8 10.6-12.6-1.3-14z"/><path class="st4" d="M272.3 283.5s-2.5.3-2.5.8c0 .9 2.5 1.3 2.5 1.3v-2.1z"/><path d="M269.3 273.7c-1.2-.1-1.6.7-1.7 1.2-.1.3.1.6.4.6.3.1.6-.1.6-.4 0-.1.1-.4.6-.4.6 0 .7.9.7.9 0 .3.3.5.5.5h.1c.3 0 .5-.3.5-.6-.1-.6-.6-1.7-1.7-1.8z"/><ellipse class="st11" cx="478.7" cy="597.9" rx="78.2" ry="6.8"/><path class="st12" d="M414.3 582.2c1.8-1.4 3.4-.7 3.4 2.3 0 2.5 1.4 2.9 2.8 3.1 5.9.7 6.6-2 6.6-2s2.8 10-2 10.9c-2.1.4-8.4 1.1-14.4 1.5-6.8.4-13.1 1.4-13.5-2.2-.2-1.6 5.8-3.9 10.5-7.7 2-1.7 5.2-4.8 6.6-5.9"/><path class="st4" d="M415.9 586.7c.2 0 .4 0 .5-.2.2-.2.2-.6-.1-.8l-3.3-2.8c-.2-.2-.6-.2-.8.1-.2.2-.2.6.1.8l3.3 2.8c.1.1.2.1.3.1m-2.5 1.9c.2 0 .4 0 .5-.2.2-.2.2-.6 0-.8l-3-2.7a.6.6 0 0 0-.8 0c-.2.2-.2.6 0 .8l3 2.7c.1.1.2.2.3.2m-2.5 1.8c.2 0 .4 0 .5-.2.2-.2.2-.6 0-.8l-2.8-2.6a.6.6 0 0 0-.8 0c-.2.2-.2.6 0 .8l2.8 2.6c.1.2.2.2.3.2m-2.5 1.9c.2 0 .4 0 .5-.2.2-.2.2-.6 0-.8l-2.5-2.5a.6.6 0 0 0-.8 0c-.2.2-.2.6 0 .8l2.5 2.5c.1.1.2.2.3.2"/><path class="st12" d="m464.1 400.1-49.3-6.8c-1.9 11.6-3.4 68.6-2.6 96.4l23.9 2.1s23-51 28-91.7"/><path class="st12" d="M427.7 580.1c.1-.4.3-1.2.5-2.2 2.1-8.6 11.1-47.5 10.6-65.7-.2-6.1.2-18.4-3.4-26.2-.6-1.2-21.6 1.2-23.4 2.2l1.8 91.3c5.5.8 13.9.6 13.9.6m100.2-.1c-1.8-1.5-3.4-.8-3.4 2.2-.1 2.5-1.5 2.9-2.9 3-5.9.5-6.5-2.2-6.5-2.2s-3.1 9.9 1.6 10.9c2 .5 8.4 1.4 14.4 1.9 6.8.6 13.1 1.8 13.6-1.8.2-1.6-5.7-4-10.3-8-2-1.7-5.1-4.9-6.5-6"/><path class="st4" d="M526.2 584.4c-.2 0-.4 0-.5-.2-.2-.2-.2-.6.1-.8l3.3-2.7c.2-.2.6-.2.8.1.2.2.2.6-.1.8l-3.3 2.7c-.1.1-.2.1-.3.1m2.4 2c-.2 0-.4 0-.5-.2-.2-.2-.2-.6.1-.8l3.1-2.6c.2-.2.6-.2.8.1.2.2.2.6-.1.8l-3.1 2.6c-.1 0-.2 0-.3.1m2.4 1.9c-.2 0-.4 0-.5-.2-.2-.2-.2-.6.1-.8l2.9-2.5c.2-.2.6-.2.8.1.2.2.2.6-.1.8l-2.9 2.5s-.1.1-.3.1m2.5 1.9c-.2 0-.4 0-.5-.2a.6.6 0 0 1 0-.8l2.6-2.4c.2-.2.6-.2.8 0 .2.2.2.6 0 .8l-2.6 2.4c-.1.1-.2.2-.3.2"/><path class="st12" d="m431 399.5 53.6 3.7c4.2 10.9 12.2 56.9 17.2 84.3l-21.2 9.5c-.1 0-27.7-35.4-49.6-97.5"/><path class="st12" d="M513.9 580.3c-.2-.4-.6-1-1.2-1.9-4.6-7.6-24.8-42-29.7-59.5-1.7-5.9-5.7-17.5-4.6-26 .2-1.3 21-5.3 23-4.9l25.5 87.7c-4.9 2.2-13 4.6-13 4.6"/><path class="st20" d="M486.6 323.4s8.1-2.8 10.4-9.8c2.6-8.2 13.9-43 13.6-44.6-1.6-11.7-11.6-7.2-14.3-2.7-2.7 4.5-11.8 14.2-16 26.6-3.3 9.8-13.4 29.4 6.3 30.5"/><path class="st21" d="M482.1 272.8c.6 4.6-1.4 8.5-4.3 11.1-1.1-.6-2.3-1.3-3.4-1.9-.5 6.9-2.6 13.2-6.2 18.1-1.6-1.4-3.2-2.9-4.9-4.3-.4 3.8-1 8-3.8 9.9-2.8 1.9-8.6-.6-9.2-4.7-.9 3-5.1 2.9-7.9.5-2.8-2.4-4.3-6.2-4.7-9.6-2.3 3.3-8.7 1.1-11.4-3.5-2.7-4.6-2-9.9.7-12.9-1.5.5-2.9 1-4.4 1.5-4.2-5.5-4.7-13.2-1.3-17.2-2.9-.7-4.9-5-4.3-7.7.7-2.7 3.2-4.1 5.7-4.7-1.8-2.7-2-6.3-.4-8.2s4.8-1.9 7.4-.1c-1.7-3.3-1.2-7.1 1.2-8.6s6.2-.4 8.6 2.4c-.3-5.2 4.2-8.6 9.1-6.9s8.8 8.3 7.9 13c.4-5.5 6.6-7.9 11.7-4.6 1.1.7 2.1 1.7 2.5 2.9.4 1.2-.1 2.5-1.2 2.4 3.3-2 9 2 10.7 6.6 1.7 4.7.2 9.2-2.4 12-.6-1.6-.2-3.3.9-4 .9-.6 2.7 5.4 2.7 6 .1 2.4-1.2 3.9-2.8 5 1.8 2.3 3.2 4.8 3.5 7.5z"/><path class="st20" d="m460.4 300.3.7 4.2 10.7 4.6s-5.1 11.4-25.3 11.2c-20.2-.3-21.1-10.7-21.1-10.7l9.3-3.5.8-4.4 24.9-1.4z"/><path class="st20" d="m436.7 281.6 23.2-.1 1.2 35.9-26.9-1.5z"/><path class="st22" d="m409.5 327 10-18.8 12.2-1.8s1 4 14.8 5c13.8.9 17-5.8 17-5.8 19.6 3.7 24.6 25 24.6 25l6 95.4-94.2 1.4 9.6-100.4z"/><path class="st20" d="M494.9 275.4s-1.9-12.2-1.5-17c.3-3.2 1-14.1-2-28.1-.2-.7-1-3-1.1-3.4-.3-.8-1.2-1.9-1.4-2.9-.5-1.6-1.2-3-1.6-3.9 1.1-.5 2.2 0 2.9 1.6.6 1.2.9 2.5 1.5 2.3.3-.1.1-1.2-.4-3.5-.5-1.9-1.2-4.7-1.6-7.2-.3-1.6 1.2-1.7 1.7-.8.8 1.8 1.7 6.1 2.1 6.9.1.3.4.1.4-.1-.2-2.1-2.8-7.2-1.1-7.7.2 0 .4 0 .6.2.3.2.5.6.8 1.4.1.2.1.4.2.5.6 2 1.2 3.9 1.7 4.9.1.3.4.4.5.1.1-.1-.3-1.4-.7-2.8-.6-2-1.2-4.4-.5-4.6.7-.2 1.1.8 1.6 2.2.8 2.3 1.5 5.6 1.7 5.7.2.1.4.1.3-.2-.2-.8-.6-3-.8-4.6-.1-.8.6-1.2.9-.8.7 1.4 1.4 4.4 2 6.5 1.2 3.9 1 8.1 2 11.8.2.9.5 1.5 1 3 1.5 4.3 3.2 14.8 5.3 25.8.7 3.9 1.2 5.6 1.2 7.7"/><path class="st22" d="M488.8 332.2c3.7-9.5 14.8-29.4 14.8-29.4l-26.2-11.9-13.8 14.7s-.9 15.6 11.2 21.9c12.1 6.2 14 4.7 14 4.7"/><path class="st20" d="M415 321.2s-8.1-3.1-10.1-10.1c-2.4-8.3-12.5-43.4-12.2-45 2-11.7 11.8-6.9 14.4-2.3 2.5 4.6 11.4 14.6 15.2 27.1 3 9.8 12.4 29.7-7.3 30.3"/><path class="st20" d="M409.2 272.4s.5-12.4-.4-17.1c-.6-3.2-2.6-13.9-1.2-28.1.1-.7.6-3.1.7-3.5.2-.8.9-2 1.1-3.1.3-1.6.8-3.1 1.1-4-1.2-.3-2.2.2-2.7 2-.5 1.3-.6 2.5-1.3 2.5-.4-.1-.3-1.1 0-3.5.2-1.9.6-4.8.8-7.4.1-1.6-1.4-1.6-1.7-.6-.6 1.8-1 6.3-1.3 7-.1.3-.4.2-.4 0-.1-2.1 2-7.4.3-7.8-.2 0-.4.1-.6.3-.3.2-.4.7-.6 1.4 0 .2-.1.4-.1.6-.4 2-.8 4-1.1 5.1 0 .3-.3.4-.4.2-.1-.1.1-1.4.4-2.8.3-2 .7-4.5 0-4.6-.7-.2-1 .9-1.3 2.3-.6 2.4-.9 5.7-1 5.9-.1.1-.4.1-.4-.1.1-.9.2-3.1.3-4.6 0-.8-.7-1.1-1-.7-.5 1.5-.9 4.5-1.3 6.7-.7 4-.1 8.1-.7 11.9-.1.9-.3 1.5-.7 3.1-1 4.4-1.5 15.1-2.4 26.2-.3 4-.6 5.7-.3 7.8"/><path class="st22" d="M408.6 325.9c-3.4-9.6-10-25.9-10-25.9l26.6-11.1 6.5 17.5s7.3 13.2-5 19.1c-12.3 5.9-18.1.4-18.1.4"/><path class="st23" d="M452.2 287.3c-.4.1-3.3 12.9-16.2 11.4l.2-12.3 16 .9z"/><path class="st20" d="m432.3 263.6.4 6.7c.1 11.6 1.3 21.2 10.6 22.6 1.3.2 2.8.2 3.7.2l.3-37.5-8.4.2c-2.5 0-4.8-.3-5.7 1.7-.3.6-.8 5.2-.9 5.9v.2z"/><path class="st20" d="m462.6 263.9-.5 6.7c-.3 6.5-2.8 21.2-12.1 22.4-1.4.2-2.3.2-3.2.1l-.1-34.8h3.3l2.8.1h3.5c2.5.1 4.8 1.3 5.7 3.3.3.6.6 1.3.6 1.9v.3z"/><path class="st4" d="M439.5 280.8c2 0 13.5.2 13.5.2-.3 2.4-3.8 5.5-7 5.6-3.1.1-6.4-3.5-6.5-5.8z"/><path class="st23" d="m443.7 265.8-.4 10.6c.5.8 4.3 1 4.3 1s-5 3.7-9 .8c-3.9-2.8-5.5-14.3 5.1-12.4z"/><path class="st21" d="m460.6 278.9-1.3-18.3s-21.3-.5-25.2-2.9c-.2-.1-.6 3.7-.6 3.7l-2.7-.4s-4-14 16.7-14.5c11.3-.2 20.4 7 20.4 10.8-.1 9.2-1 10.7-1.7 15.1-.7 4.5-5.6 6.5-5.6 6.5z"/><path class="st21" d="m430.7 258.4 3.8-1.4-1.1 20.6s-2.7-2.8-3.1-9.3"/><ellipse transform="rotate(-89.12 461.63 275.7) scale(1.00002)" class="st20" cx="461.6" cy="275.7" rx="4.2" ry="3"/><path d="M455.9 270.3c-.1-.9-.8-2.7-2.6-2.8-1.8-.1-2.6 1.2-2.7 1.9-.1.4.2.9.6 1 .4.1.9-.2 1-.6 0-.1.2-.6 1-.6.9.1 1.1 1.4 1.1 1.4 0 .4.4.7.8.7h.1c.4-.1.7-.6.7-1zm-16.2-3.2c-1.8-.3-2.9 1.2-3.2 2-.2.4 0 .9.4 1.1h.1c.4.1.8-.1 1-.5 0 0 .5-1.2 1.4-1 .8.2.8.7.8.8 0 .5.3.8.8.9.5 0 .8-.3.9-.8 0-.7-.4-2.1-2.2-2.5z"/><path class="st21" d="m437 264.6 5.2.3s-2.5-2.8-5.2-.3zm14 0 5.2.3s-2.6-2.8-5.2-.3z"/><path d="M511.5 178.9c0 33.5-27.1 60.6-60.6 60.6s-60.6-27.1-60.6-60.6 27.1-60.6 60.6-60.6 60.6 27.2 60.6 60.6z" style="fill:#00aff5"/><path class="st2" d="M360 27.4h60.6l60.6 70.7h-60.6L360 27.4z"/><path class="st22" d="M541.8 27.4h-60.6l-60.6 70.7h60.6l60.6-70.7z"/><path class="st20" d="M491.9 230.5c-.2-.7-1.1-2.9-1.3-3.3-.4-.8-1.3-1.9-1.6-2.9-.5-1.5-1.3-3-1.8-3.8 1.1-.5 2.2-.1 3 1.5.7 1.2 1.1 2.4 1.6 2.2m-84.2 2.9c.1-.7.6-3.1.7-3.5.2-.8.9-2 1.1-3.1.3-1.6.8-3.1 1.1-4-1.2-.3-2.2.2-2.7 2-.5 1.3-1.2 4.1-1.8 4"/><path class="st15" d="M258.4 274.8s-1.4-3.7-3-2.4c-1.7 1.2-1.5 5 1.5 5.3 1.8.2 2.1-.2 2.1-.2l-.6-2.7z"/></svg>